<svg xmlns="http://www.w3.org/2000/svg" viewBox="0 0 100 100" width="100" height="100" role="img" aria-label="44H — 44 Havelock Road">
  <circle cx="50" cy="50" r="38.46" fill="none" stroke="#A98B53" stroke-width="1.6"/>
  <path d="M36.35,55.73 Q36.35,56.41 36.32,57.02 Q36.29,57.62 36.24,58.00 Q36.73,57.94 37.34,57.93 Q37.95,57.92 38.30,57.92 L38.30,59.68 L30.89,59.68 L30.89,58.19 L31.05,58.19 Q31.78,58.16 32.23,57.94 Q32.67,57.70 32.90,57.13 Q33.13,56.54 33.13,55.49 L33.13,54.68 L25.51,54.68 L25.51,52.54 L34.94,40.32 L36.35,40.32 L36.35,52.51 L39.03,52.51 L39.03,54.68 L36.35,54.68 L36.35,55.73 Z M33.11,45.38 L27.78,52.40 L33.13,52.46 L33.16,45.38 L33.11,45.38 Z M51.08,55.73 Q51.08,56.41 51.05,57.02 Q51.03,57.62 50.98,58.00 Q51.46,57.94 52.07,57.93 Q52.68,57.92 53.03,57.92 L53.03,59.68 L45.62,59.68 L45.62,58.19 L45.78,58.19 Q46.52,58.16 46.96,57.94 Q47.41,57.70 47.63,57.13 Q47.87,56.54 47.87,55.49 L47.87,54.68 L40.24,54.68 L40.24,52.54 L49.67,40.32 L51.08,40.32 L51.08,52.51 L53.76,52.51 L53.76,54.68 L51.08,54.68 L51.08,55.73 Z M47.84,45.38 L42.51,52.40 L47.87,52.46 L47.89,45.38 L47.84,45.38 Z M56.06,59.68 L56.06,58.19 Q56.81,58.16 57.22,57.94 Q57.62,57.70 57.78,57.13 Q57.95,56.54 57.95,55.51 L57.95,44.73 Q57.95,44.05 57.99,43.43 Q58.03,42.81 58.05,42.46 Q57.60,42.49 57.00,42.50 Q56.41,42.51 56.06,42.54 L56.06,40.75 L63.25,40.75 L63.25,42.24 Q62.51,42.27 62.10,42.50 Q61.68,42.73 61.51,43.30 Q61.35,43.86 61.35,44.92 L61.35,49.21 L69.52,49.21 L69.52,44.73 Q69.52,44.05 69.54,43.43 Q69.57,42.81 69.63,42.46 Q69.17,42.49 68.57,42.50 Q67.98,42.51 67.63,42.54 L67.63,40.75 L74.81,40.75 L74.81,42.24 Q74.09,42.27 73.67,42.50 Q73.25,42.73 73.08,43.30 Q72.92,43.86 72.92,44.92 L72.92,55.65 Q72.92,56.38 72.90,57.00 Q72.87,57.62 72.82,57.97 Q73.28,57.94 73.88,57.92 Q74.49,57.89 74.81,57.89 L74.81,59.68 L67.63,59.68 L67.63,58.19 Q68.38,58.16 68.79,57.94 Q69.19,57.70 69.35,57.13 Q69.52,56.54 69.52,55.51 L69.52,50.95 L61.35,51.05 L61.35,55.65 Q61.35,56.38 61.32,57.00 Q61.30,57.62 61.25,57.97 Q61.70,57.94 62.30,57.92 Q62.89,57.89 63.25,57.89 L63.25,59.68 L56.06,59.68 Z" fill="#F8F5EE"/>
</svg>